<svg xmlns="http://www.w3.org/2000/svg" width="180" height="48" viewBox="0 0 180 48" role="img" aria-label="Vocably — Extension for macOS Safari">
  <title>Vocably — Extension for macOS Safari</title>
  <rect x="0.5" y="0.5" width="179" height="47" rx="8" fill="#000" stroke="#a6a6a6"/>
  <g transform="translate(11 11) scale(1.0833)">
    <defs><linearGradient id="safari-bg" x1="0" y1="0" x2="0" y2="1">
      <stop offset="0" stop-color="#19D7FF"/><stop offset="1" stop-color="#1E64F0"/>
    </linearGradient></defs>
    <circle cx="12" cy="12" r="12" fill="#fff"/>
    <circle cx="12" cy="12" r="11" fill="url(#safari-bg)"/>
    <g stroke="#fff" stroke-width="0.6" stroke-linecap="round"><line x1="12" y1="2.2" x2="12" y2="3.6" transform="rotate(0 12 12)"/><line x1="12" y1="2.2" x2="12" y2="3" transform="rotate(15 12 12)"/><line x1="12" y1="2.2" x2="12" y2="3.6" transform="rotate(30 12 12)"/><line x1="12" y1="2.2" x2="12" y2="3" transform="rotate(45 12 12)"/><line x1="12" y1="2.2" x2="12" y2="3.6" transform="rotate(60 12 12)"/><line x1="12" y1="2.2" x2="12" y2="3" transform="rotate(75 12 12)"/><line x1="12" y1="2.2" x2="12" y2="3.6" transform="rotate(90 12 12)"/><line x1="12" y1="2.2" x2="12" y2="3" transform="rotate(105 12 12)"/><line x1="12" y1="2.2" x2="12" y2="3.6" transform="rotate(120 12 12)"/><line x1="12" y1="2.2" x2="12" y2="3" transform="rotate(135 12 12)"/><line x1="12" y1="2.2" x2="12" y2="3.6" transform="rotate(150 12 12)"/><line x1="12" y1="2.2" x2="12" y2="3" transform="rotate(165 12 12)"/><line x1="12" y1="2.2" x2="12" y2="3.6" transform="rotate(180 12 12)"/><line x1="12" y1="2.2" x2="12" y2="3" transform="rotate(195 12 12)"/><line x1="12" y1="2.2" x2="12" y2="3.6" transform="rotate(210 12 12)"/><line x1="12" y1="2.2" x2="12" y2="3" transform="rotate(225 12 12)"/><line x1="12" y1="2.2" x2="12" y2="3.6" transform="rotate(240 12 12)"/><line x1="12" y1="2.2" x2="12" y2="3" transform="rotate(255 12 12)"/><line x1="12" y1="2.2" x2="12" y2="3.6" transform="rotate(270 12 12)"/><line x1="12" y1="2.2" x2="12" y2="3" transform="rotate(285 12 12)"/><line x1="12" y1="2.2" x2="12" y2="3.6" transform="rotate(300 12 12)"/><line x1="12" y1="2.2" x2="12" y2="3" transform="rotate(315 12 12)"/><line x1="12" y1="2.2" x2="12" y2="3.6" transform="rotate(330 12 12)"/><line x1="12" y1="2.2" x2="12" y2="3" transform="rotate(345 12 12)"/></g>
    <path fill="#FF3B30" d="M18.6 5.4 13.4 13.4 10.6 10.6z"/>
    <path fill="#fff" d="M5.4 18.6 10.6 10.6 13.4 13.4z"/>
  </g>
  <g fill="#fff" font-family="-apple-system, BlinkMacSystemFont, 'Segoe UI', Helvetica, Arial, sans-serif">
    <text x="48" y="20" font-size="10">Extension for</text>
    <text x="48" y="37" font-size="16" font-weight="600">macOS Safari</text>
  </g>
</svg>
