<svg xmlns="http://www.w3.org/2000/svg" width="180" height="48" viewBox="0 0 180 48" role="img" aria-label="Vocably — Extension for Google Chrome">
  <title>Vocably — Extension for Google Chrome</title>
  <rect x="0.5" y="0.5" width="179" height="47" rx="8" fill="#000" stroke="#a6a6a6"/>
  <g transform="translate(11 11) scale(1.0833)">
    <circle cx="12" cy="12" r="11.6" fill="#fff"/>
    <path fill="#EA4335" d="M12 0C8.21 0 4.831 1.757 2.632 4.501l3.953 6.848A5.454 5.454 0 0 1 12 6.545h10.691A12 12 0 0 0 12 0z"/>
    <path fill="#34A853" d="M1.931 5.47A11.943 11.943 0 0 0 0 12c0 6.012 4.42 10.991 10.189 11.864l3.953-6.847a5.45 5.45 0 0 1-6.865-2.29z"/>
    <path fill="#FBBC05" d="M15.273 7.636a5.446 5.446 0 0 1 1.45 7.09l.002.001h-.002l-5.344 9.257c.206.01.413.016.621.016 6.627 0 12-5.373 12-12 0-1.54-.29-3.011-.818-4.364z"/>
    <circle cx="12" cy="12" r="4.364" fill="#4285F4"/>
  </g>
  <g fill="#fff" font-family="-apple-system, BlinkMacSystemFont, 'Segoe UI', Helvetica, Arial, sans-serif">
    <text x="48" y="20" font-size="10">Extension for</text>
    <text x="48" y="37" font-size="16" font-weight="600">Google Chrome</text>
  </g>
</svg>
